<?xml version="1.0" encoding="UTF-8"?><svg xmlns="http://www.w3.org/2000/svg" class="header" enable-background="new 0 0 585 101" fill="none" height="35px" preserveAspectRatio="xMidYMid meet" viewBox="0 0 585 101" width="200px"><g clip-path="url(#clip0_6505_195131)"><path d="M63.8162 90.6692H16.5258C7.40924 90.6692 0 83.2599 0 74.1433V26.853C0 17.7364 7.40924 10.3271 16.5258 10.3271H63.8162C72.9328 10.3271 80.342 17.7364 80.342 26.853V74.1433C80.342 83.2599 72.9328 90.6692 63.8162 90.6692Z" fill="#EF3346"/><path d="M28.6302 45.9019C28.6302 45.2421 28.1664 44.7783 27.5066 44.7783H19.7095C19.0498 44.7783 18.5859 45.2421 18.5859 45.9019V53.699C18.5859 54.3587 19.0498 54.8226 19.7095 54.8226H27.5066C28.1664 54.8226 28.6302 54.3587 28.6302 53.699V45.9019Z" fill="#191E3B"/><path d="M36.9712 62.04H44.7683C45.3881 62.04 45.8919 62.5439 45.8919 63.1636V70.9607C45.8919 71.5805 45.3881 72.0843 44.7683 72.0843H36.9712C36.3515 72.0843 35.8477 71.5805 35.8477 70.9607V63.1636C35.8477 62.5439 36.3515 62.04 36.9712 62.04Z" fill="#191E3B"/><path d="M36.9712 44.7744H44.7683C45.3881 44.7744 45.8919 45.2782 45.8919 45.898V53.6951C45.8919 54.3149 45.3881 54.8187 44.7683 54.8187H36.9712C36.3515 54.8187 35.8477 54.3149 35.8477 53.6951V45.898C35.8477 45.2782 36.3515 44.7744 36.9712 44.7744Z" fill="#FDDB32"/><path d="M65.8716 29.916C65.8716 27.0851 63.5844 24.7939 60.7495 24.7939H22.3438C21.5681 24.7939 21.1043 25.0658 20.6365 25.5697L12.9153 33.2908C12.3316 33.8746 12.7194 34.7262 13.5751 34.7262H55.9753V77.1264C55.9753 77.9781 56.827 78.3659 57.4107 77.7862L65.1319 70.065C65.5957 69.6012 65.9076 69.1334 65.9076 68.3577V29.916H65.8676H65.8716Z" fill="#191E3B"/><path d="M270.841 54.7309C271.977 46.7818 276.135 41.5798 284.428 41.5798C292.721 41.5798 297.387 46.438 298.059 54.7309H270.845H270.841ZM284.616 33.7627C271.369 33.7627 260.793 43.2951 260.793 59.1132C260.793 74.9313 270.133 85.2235 285.856 85.2235C294.908 85.2235 302.437 81.221 307.108 75.691C307.396 75.4031 307.492 75.1193 307.492 74.8354C307.492 74.5515 307.396 74.2636 307.108 73.9797L302.721 69.6893C302.433 69.4014 302.15 69.3054 301.866 69.3054C301.582 69.3054 301.294 69.4974 301.01 69.7852C297.391 73.6918 292.717 77.0305 285.952 77.0305C276.087 77.0305 271.337 70.9528 270.613 62.1641H307.208C307.875 62.1641 308.351 61.6843 308.351 61.0205V59.1172C308.343 44.6346 299.578 33.7667 284.616 33.7667" fill="white"/><path d="M158.154 17.0845H150.245C149.577 17.0845 149.101 17.5643 149.101 18.228V44.9141H116.985V18.228C116.985 17.5603 116.509 17.0845 115.842 17.0845H107.933C107.265 17.0845 106.789 17.5643 106.789 18.228V82.656C106.789 83.3238 107.265 83.7996 107.933 83.7996H115.842C116.509 83.7996 116.985 83.3198 116.985 82.656V53.8747H149.101V82.656C149.101 83.3238 149.577 83.7996 150.245 83.7996H158.154C158.822 83.7996 159.297 83.3198 159.297 82.656V18.224C159.297 17.5563 158.818 17.0845 158.154 17.0845Z" fill="white"/><path d="M325.695 17.0845H318.069C317.402 17.0845 316.926 17.5643 316.926 18.228V82.656C316.926 83.3238 317.402 83.7996 318.069 83.7996H325.695C326.362 83.7996 326.838 83.3198 326.838 82.656V18.224C326.838 17.5563 326.358 17.0845 325.695 17.0845Z" fill="white"/><path d="M194.177 76.8426C183.601 76.8426 177.975 68.9336 177.975 59.4971C177.975 50.0606 183.597 42.1516 194.177 42.1516C204.757 42.1516 210.379 50.0606 210.379 59.4971C210.379 68.9336 204.753 76.8426 194.177 76.8426ZM194.177 33.7627C179.978 33.7627 168.066 44.2468 168.066 59.4931C168.066 74.7394 179.978 85.2275 194.177 85.2275C208.375 85.2275 220.287 74.7434 220.287 59.4931C220.287 44.2428 208.375 33.7627 194.177 33.7627Z" fill="white"/><path d="M485.958 76.8426C475.382 76.8426 469.756 68.9336 469.756 59.4971C469.756 50.0606 475.378 42.1516 485.958 42.1516C496.538 42.1516 502.16 50.0606 502.16 59.4971C502.16 68.9336 496.534 76.8426 485.958 76.8426ZM485.958 33.7627C471.759 33.7627 459.848 44.2468 459.848 59.4931C459.848 74.7394 471.759 85.2275 485.958 85.2275C500.157 85.2275 512.068 74.7434 512.068 59.4931C512.068 44.2428 500.157 33.7627 485.958 33.7627Z" fill="white"/><path d="M254.975 35.286H242.587V19.168C242.587 18.3124 241.732 17.9285 241.156 18.5003L233.431 26.2214C232.951 26.7012 232.671 27.173 232.671 27.9368V35.286H224.194C223.527 35.286 223.051 35.7658 223.051 36.4296V41.7676C223.051 42.4354 223.527 42.9112 224.194 42.9112H232.679V68.9295C232.679 77.9821 236.97 83.7959 246.022 83.7959H254.979C255.643 83.7959 256.122 83.3201 256.122 82.6523V76.5546C256.122 75.8869 255.647 75.411 254.979 75.411H248.689C244.207 75.411 242.591 73.6957 242.591 69.2174V42.9152H254.983C255.647 42.9152 256.126 42.4394 256.126 41.7716V36.4336C256.126 35.7658 255.647 35.294 254.979 35.294" fill="white"/><path d="M395.319 74.1152H387.674C386.914 74.1152 386.398 74.619 386.398 75.3908V82.5241C386.398 83.2838 386.914 83.7996 387.674 83.7996H395.319C396.079 83.7996 396.595 83.2958 396.595 82.5241V75.3908C396.595 74.619 396.091 74.1152 395.319 74.1152Z" fill="white"/><path d="M357.239 54.7265C349.426 53.0111 345.611 51.6756 345.611 47.6731C345.611 43.6706 349.042 41.5754 355.143 41.5754C360.577 41.5754 364.864 44.0545 367.631 47.961C368.015 48.5328 368.678 48.6287 369.254 48.2489L374.4 44.9101C374.972 44.5263 375.16 43.9585 374.78 43.2907C370.586 36.9051 363.916 33.7583 355.243 33.7583C345.519 33.7583 336.85 38.5205 336.85 48.2449C336.85 57.9693 344.951 61.1081 355.623 63.3992C363.148 65.0186 366.487 66.2582 366.487 70.7405C366.487 75.2228 362.581 77.414 356.003 77.414C349.426 77.414 344.755 74.747 341.708 70.2647C341.325 69.5969 340.661 69.409 339.989 69.8808L334.843 73.5035C334.271 73.8873 334.175 74.4551 334.459 75.0269C338.366 81.6044 345.611 85.3191 355.903 85.3191C368.766 85.3191 376.204 78.9334 376.204 70.3566C376.204 60.3444 367.915 57.1016 357.243 54.7225" fill="white"/><path d="M450.615 68.7854L446.224 66.7301L446.188 66.7141L446.153 66.7021C445.873 66.5982 445.597 66.5462 445.329 66.5462C444.865 66.5462 444.001 66.7141 443.442 67.8337C440.551 73.8235 436.164 76.6064 429.639 76.6064C420.858 76.6064 415.184 69.9369 415.184 59.6168C415.184 49.2966 420.722 42.3432 429.639 42.3432C436.112 42.3432 440.127 44.7943 443.058 50.5322C443.446 51.4078 444.169 51.9316 445.001 51.9316C445.273 51.9316 445.549 51.8717 445.817 51.7597L445.837 51.7517L445.857 51.7437L450.355 49.5885C451.291 49.1767 452.054 48.169 451.415 46.5656C450.071 43.1749 447.46 40.0921 444.065 37.8769C440.099 35.2899 435.113 33.9224 429.647 33.9224C422.845 33.9224 416.636 36.5094 412.153 41.2036C407.655 45.9179 405.176 52.4914 405.176 59.7127C405.176 74.3833 415.468 85.0313 429.647 85.0313C445.301 85.0313 450.555 74.7751 451.794 71.6323C452.25 70.4207 451.774 69.2852 450.619 68.7934L450.615 68.7854Z" fill="white"/><path d="M580.766 38.7447C577.795 35.7098 573.425 34.1064 568.123 34.1064C561.426 34.1064 556.627 37.6251 554.016 41.3597C551.841 37.6091 547.491 34.1064 540.857 34.1064C536.087 34.1064 532.348 35.6819 529.505 38.9007V37.6131C529.505 36.4176 528.606 35.5179 527.41 35.5179H522.052C520.857 35.5179 519.957 36.4176 519.957 37.6131V81.7087C519.957 82.9042 520.857 83.8039 522.052 83.8039H527.598C528.794 83.8039 529.693 82.9042 529.693 81.7087V53.7871C529.693 50.3444 530.581 42.3434 538.786 42.3434C544.844 42.3434 547.787 45.5342 547.787 52.0957V81.7127C547.787 82.9082 548.686 83.8079 549.882 83.8079H555.336C556.531 83.8079 557.431 82.9082 557.431 81.7127V53.7911C557.431 49.5167 558.651 42.3474 566.808 42.3474C572.753 42.3474 575.524 45.4462 575.524 52.0997V81.7167C575.524 82.9122 576.424 83.8119 577.619 83.8119H583.073C584.269 83.8119 585.169 82.9122 585.169 81.7167V50.9721C585.169 45.922 583.645 41.6956 580.766 38.7567V38.7447Z" fill="white"/></g><defs><clipPath id="clip0_6505_195131"><rect fill="white" height="80.37" transform="translate(0 10.3271)" width="584.982"/></clipPath></defs></svg>